<svg  viewBox="0 0 427 100" fill="none" xmlns="http://www.w3.org/2000/svg">
<rect x="29.9236" y="66.6597" width="37.7711" height="8.24096" rx="4.12048" transform="rotate(-90 29.9236 66.6597)" fill="url(#paint0_linear_30265_81561)"/>
<rect x="39.9318" y="66.6597" width="28.5" height="6.18072" rx="3.09036" transform="rotate(-90 39.9318 66.6597)" fill="url(#paint1_linear_30265_81561)"/>
<rect x="60.5342" y="66.6597" width="34.3373" height="10.6446" rx="5.32229" transform="rotate(-90 60.5342 66.6597)" fill="url(#paint2_linear_30265_81561)"/>
<rect x="47.8293" y="66.6597" width="42.5783" height="10.988" rx="5.49398" transform="rotate(-90 47.8293 66.6597)" fill="#FF5253"/>
<rect x="72.8956" y="66.6597" width="37.7711" height="6.18072" rx="3.09036" transform="rotate(-90 72.8956 66.6597)" fill="#FF5253"/>
<rect x="26" y="69.6597" width="57" height="5.1506" rx="2.5753" fill="#FF5253"/>
<path d="M117 53.127C117 47.9997 117.383 43.8543 118.15 40.6906C118.95 37.4906 120.25 34.9997 122.051 33.2179C123.884 31.3997 126.285 30.1815 129.252 29.5634C132.219 28.9088 135.886 28.5815 140.253 28.5815C140.887 28.5815 141.337 28.9634 141.604 29.727C141.87 30.4543 142.004 31.1634 142.004 31.8543C142.004 32.5452 141.87 33.2725 141.604 34.0361C141.337 34.7634 140.887 35.127 140.253 35.127C136.52 35.127 133.569 35.3634 131.402 35.8361C129.235 36.3088 127.602 36.8543 126.501 37.4725C125.401 38.0906 124.701 38.727 124.401 39.3815C124.134 40.0361 124.001 40.527 124.001 40.8543C124.001 41.727 124.268 42.1634 124.801 42.1634C125.268 42.1634 125.968 41.9997 126.901 41.6725C127.835 41.3088 129.035 41.127 130.502 41.127C132.502 41.127 134.319 41.4906 135.953 42.2179C137.62 42.9088 139.053 43.9088 140.253 45.2179C141.454 46.527 142.37 48.0906 143.004 49.9088C143.671 51.6906 144.004 53.6725 144.004 55.8543C144.004 58.0361 143.671 60.0361 143.004 61.8543C142.37 63.6361 141.454 65.1815 140.253 66.4906C139.053 67.7997 137.62 68.7997 135.953 69.4906C134.319 70.2179 132.502 70.5815 130.502 70.5815C128.502 70.5815 126.668 70.2361 125.001 69.5452C123.368 68.8906 121.951 67.8543 120.751 66.4361C119.55 65.0179 118.617 63.2179 117.95 61.0361C117.317 58.8179 117 56.1815 117 53.127ZM123.501 55.8543C123.501 58.8725 124.101 60.9997 125.301 62.2361C126.501 63.4361 128.235 64.0361 130.502 64.0361C132.769 64.0361 134.503 63.4361 135.703 62.2361C136.903 60.9997 137.503 58.8725 137.503 55.8543C137.503 52.8361 136.903 50.727 135.703 49.527C134.503 48.2906 132.769 47.6725 130.502 47.6725C128.235 47.6725 126.501 48.2906 125.301 49.527C124.101 50.727 123.501 52.8361 123.501 55.8543Z" fill="url(#paint3_linear_30265_81561)"/>
<path d="M151.384 41.6725C151.684 41.6725 152.051 41.7088 152.484 41.7815C152.917 41.8543 153.334 41.9634 153.734 42.1088C154.134 42.2543 154.468 42.4543 154.734 42.7088C155.001 42.9634 155.134 43.2543 155.134 43.5815C155.134 44.5997 155.118 45.5634 155.084 46.4725C155.051 47.3452 155.018 48.2543 154.984 49.1997C154.984 50.1452 154.968 51.1452 154.934 52.1997C154.901 53.2543 154.884 54.4725 154.884 55.8543C154.884 58.8725 155.401 60.9997 156.435 62.2361C157.468 63.4361 159.118 64.0361 161.385 64.0361C163.652 64.0361 165.303 63.4361 166.336 62.2361C167.369 60.9997 167.886 58.8725 167.886 55.8543C167.886 54.4725 167.87 53.2543 167.836 52.1997C167.803 51.1452 167.77 50.1452 167.736 49.1997C167.736 48.2543 167.72 47.3452 167.686 46.4725C167.653 45.5634 167.636 44.5997 167.636 43.5815C167.636 43.2543 167.77 42.9634 168.036 42.7088C168.303 42.4543 168.636 42.2543 169.036 42.1088C169.436 41.9634 169.853 41.8543 170.287 41.7815C170.72 41.7088 171.087 41.6725 171.387 41.6725C171.687 41.6725 172.054 41.7088 172.487 41.7815C172.92 41.8543 173.337 41.9634 173.737 42.1088C174.137 42.2543 174.471 42.4543 174.737 42.7088C175.004 42.9634 175.137 43.2543 175.137 43.5815C175.137 44.5997 175.104 45.5634 175.037 46.4725C175.004 47.3452 174.954 48.2543 174.887 49.1997C174.821 50.1452 174.754 51.1452 174.687 52.1997C174.654 53.2543 174.637 54.4725 174.637 55.8543C174.637 57.0179 174.654 58.0906 174.687 59.0725C174.721 60.0543 174.754 61.0179 174.787 61.9634C174.854 62.8725 174.904 63.7815 174.937 64.6906C175.004 65.5997 175.054 66.5634 175.087 67.5815C175.121 68.2361 174.954 68.7634 174.587 69.1634C174.221 69.5634 173.737 69.727 173.137 69.6543C172.737 69.6179 172.37 69.5815 172.037 69.5452C171.737 69.5088 171.353 69.4906 170.887 69.4906C169.753 69.4906 168.753 69.5452 167.886 69.6543C167.053 69.7634 166.269 69.8906 165.536 70.0361C164.836 70.1815 164.152 70.3088 163.486 70.4179C162.852 70.527 162.152 70.5815 161.385 70.5815C159.385 70.5815 157.551 70.2179 155.884 69.4906C154.251 68.7997 152.834 67.7997 151.634 66.4906C150.434 65.1815 149.5 63.6361 148.833 61.8543C148.2 60.0361 147.883 58.0361 147.883 55.8543C147.883 54.4725 147.867 53.2543 147.833 52.1997C147.8 51.1452 147.767 50.1452 147.733 49.1997C147.733 48.2543 147.717 47.3452 147.683 46.4725C147.65 45.5634 147.633 44.5997 147.633 43.5815C147.633 43.2543 147.767 42.9634 148.033 42.7088C148.3 42.4543 148.633 42.2543 149.033 42.1088C149.433 41.9634 149.85 41.8543 150.284 41.7815C150.717 41.7088 151.084 41.6725 151.384 41.6725Z" fill="url(#paint4_linear_30265_81561)"/>
<path d="M179.732 53.127C179.732 47.9997 180.115 43.8543 180.882 40.6906C181.682 37.4906 182.982 34.9997 184.782 33.2179C186.616 31.3997 189.016 30.1815 191.983 29.5634C194.95 28.9088 198.618 28.5815 202.985 28.5815C203.618 28.5815 204.068 28.9634 204.335 29.727C204.602 30.4543 204.735 31.1634 204.735 31.8543C204.735 32.5452 204.602 33.2725 204.335 34.0361C204.068 34.7634 203.618 35.127 202.985 35.127C199.251 35.127 196.301 35.3634 194.134 35.8361C191.967 36.3088 190.333 36.8543 189.233 37.4725C188.133 38.0906 187.433 38.727 187.133 39.3815C186.866 40.0361 186.733 40.527 186.733 40.8543C186.733 41.727 186.999 42.1634 187.533 42.1634C187.999 42.1634 188.7 41.9997 189.633 41.6725C190.566 41.3088 191.767 41.127 193.234 41.127C195.234 41.127 197.051 41.4906 198.684 42.2179C200.351 42.9088 201.785 43.9088 202.985 45.2179C204.185 46.527 205.102 48.0906 205.735 49.9088C206.402 51.6906 206.736 53.6725 206.736 55.8543C206.736 58.0361 206.402 60.0361 205.735 61.8543C205.102 63.6361 204.185 65.1815 202.985 66.4906C201.785 67.7997 200.351 68.7997 198.684 69.4906C197.051 70.2179 195.234 70.5815 193.234 70.5815C191.233 70.5815 189.4 70.2361 187.733 69.5452C186.099 68.8906 184.682 67.8543 183.482 66.4361C182.282 65.0179 181.348 63.2179 180.682 61.0361C180.048 58.8179 179.732 56.1815 179.732 53.127ZM186.232 55.8543C186.232 58.8725 186.833 60.9997 188.033 62.2361C189.233 63.4361 190.967 64.0361 193.234 64.0361C195.501 64.0361 197.234 63.4361 198.434 62.2361C199.634 60.9997 200.235 58.8725 200.235 55.8543C200.235 52.8361 199.634 50.727 198.434 49.527C197.234 48.2906 195.501 47.6725 193.234 47.6725C190.967 47.6725 189.233 48.2906 188.033 49.527C186.833 50.727 186.232 52.8361 186.232 55.8543Z" fill="url(#paint5_linear_30265_81561)"/>
<path d="M225.617 41.127C226.384 41.127 227.017 41.1815 227.517 41.2906C228.051 41.3997 228.567 41.527 229.068 41.6725C229.601 41.8179 230.168 41.9452 230.768 42.0543C231.401 42.1634 232.185 42.2179 233.118 42.2179C233.585 42.2179 233.968 42.1997 234.268 42.1634C234.602 42.127 234.968 42.0906 235.368 42.0543C235.969 41.9815 236.452 42.1452 236.819 42.5452C237.185 42.9452 237.352 43.4725 237.319 44.127C237.285 45.1452 237.235 46.1088 237.169 47.0179C237.135 47.927 237.085 48.8543 237.019 49.7997C236.985 50.7088 236.952 51.6543 236.919 52.6361C236.885 53.6179 236.869 54.6906 236.869 55.8543C236.869 57.1997 236.885 58.4179 236.919 59.5088C236.985 60.5634 237.052 61.5634 237.119 62.5088C237.185 63.4543 237.235 64.3815 237.269 65.2906C237.335 66.1634 237.369 67.1088 237.369 68.127C237.369 68.4543 237.235 68.7452 236.969 68.9997C236.702 69.2543 236.369 69.4543 235.969 69.5997C235.568 69.7452 235.152 69.8543 234.718 69.927C234.285 69.9997 233.918 70.0361 233.618 70.0361C233.318 70.0361 232.951 69.9997 232.518 69.927C232.085 69.8543 231.668 69.7452 231.268 69.5997C230.868 69.4543 230.534 69.2543 230.268 68.9997C230.001 68.7452 229.868 68.4543 229.868 68.127C229.868 67.1088 229.884 66.1634 229.918 65.2906C229.951 64.3815 229.968 63.4543 229.968 62.5088C230.001 61.5634 230.034 60.5634 230.068 59.5088C230.101 58.4179 230.118 57.1997 230.118 55.8543C230.118 54.3634 230.084 53.1088 230.018 52.0906C229.984 51.0361 229.818 50.1815 229.518 49.527C229.251 48.8725 228.817 48.3997 228.217 48.1088C227.617 47.8179 226.751 47.6725 225.617 47.6725C224.283 47.6725 223.15 48.0543 222.217 48.8179C221.283 49.5815 220.516 50.5634 219.916 51.7634C219.316 52.9634 218.833 54.327 218.466 55.8543C218.133 57.3815 217.883 58.9088 217.716 60.4361C217.549 61.927 217.449 63.3634 217.416 64.7452C217.382 66.0906 217.366 67.2179 217.366 68.127C217.366 68.4543 217.232 68.7452 216.966 68.9997C216.699 69.2543 216.366 69.4543 215.966 69.5997C215.566 69.7452 215.149 69.8543 214.715 69.927C214.282 69.9997 213.915 70.0361 213.615 70.0361C213.315 70.0361 212.948 69.9997 212.515 69.927C212.082 69.8543 211.665 69.7452 211.265 69.5997C210.865 69.4543 210.531 69.2543 210.265 68.9997C209.998 68.7452 209.865 68.4543 209.865 68.127C209.865 66.527 209.948 64.7634 210.115 62.8361C210.281 60.8725 210.581 58.8906 211.015 56.8906C211.448 54.8906 212.032 52.9452 212.765 51.0543C213.532 49.1634 214.499 47.4906 215.666 46.0361C216.832 44.5452 218.233 43.3634 219.866 42.4906C221.5 41.5815 223.417 41.127 225.617 41.127Z" fill="url(#paint6_linear_30265_81561)"/>
<path d="M245.725 41.6725C246.025 41.6725 246.392 41.7088 246.825 41.7815C247.259 41.8543 247.676 41.9634 248.076 42.1088C248.476 42.2543 248.809 42.4543 249.076 42.7088C249.342 42.9634 249.476 43.2543 249.476 43.5815C249.476 44.5997 249.459 45.5634 249.426 46.4725C249.392 47.3452 249.359 48.2543 249.326 49.1997C249.326 50.1452 249.309 51.1452 249.276 52.1997C249.242 53.2543 249.226 54.4725 249.226 55.8543C249.226 58.8725 249.742 60.9997 250.776 62.2361C251.809 63.4361 253.46 64.0361 255.727 64.0361C257.994 64.0361 259.644 63.4361 260.677 62.2361C261.711 60.9997 262.228 58.8725 262.228 55.8543C262.228 54.4725 262.211 53.2543 262.178 52.1997C262.144 51.1452 262.111 50.1452 262.078 49.1997C262.078 48.2543 262.061 47.3452 262.028 46.4725C261.994 45.5634 261.978 44.5997 261.978 43.5815C261.978 43.2543 262.111 42.9634 262.378 42.7088C262.644 42.4543 262.978 42.2543 263.378 42.1088C263.778 41.9634 264.195 41.8543 264.628 41.7815C265.061 41.7088 265.428 41.6725 265.728 41.6725C266.028 41.6725 266.395 41.7088 266.828 41.7815C267.262 41.8543 267.678 41.9634 268.079 42.1088C268.479 42.2543 268.812 42.4543 269.079 42.7088C269.345 42.9634 269.479 43.2543 269.479 43.5815C269.479 44.5997 269.445 45.5634 269.379 46.4725C269.345 47.3452 269.295 48.2543 269.229 49.1997C269.162 50.1452 269.095 51.1452 269.029 52.1997C268.995 53.2543 268.979 54.4725 268.979 55.8543C268.979 57.0179 268.995 58.0906 269.029 59.0725C269.062 60.0543 269.095 61.0179 269.129 61.9634C269.195 62.8725 269.245 63.7815 269.279 64.6906C269.345 65.5997 269.395 66.5634 269.429 67.5815C269.462 68.2361 269.295 68.7634 268.929 69.1634C268.562 69.5634 268.079 69.727 267.478 69.6543C267.078 69.6179 266.712 69.5815 266.378 69.5452C266.078 69.5088 265.695 69.4906 265.228 69.4906C264.095 69.4906 263.094 69.5452 262.228 69.6543C261.394 69.7634 260.611 69.8906 259.877 70.0361C259.177 70.1815 258.494 70.3088 257.827 70.4179C257.194 70.527 256.494 70.5815 255.727 70.5815C253.726 70.5815 251.893 70.2179 250.226 69.4906C248.592 68.7997 247.175 67.7997 245.975 66.4906C244.775 65.1815 243.842 63.6361 243.175 61.8543C242.541 60.0361 242.225 58.0361 242.225 55.8543C242.225 54.4725 242.208 53.2543 242.175 52.1997C242.141 51.1452 242.108 50.1452 242.075 49.1997C242.075 48.2543 242.058 47.3452 242.025 46.4725C241.991 45.5634 241.975 44.5997 241.975 43.5815C241.975 43.2543 242.108 42.9634 242.375 42.7088C242.641 42.4543 242.975 42.2543 243.375 42.1088C243.775 41.9634 244.192 41.8543 244.625 41.7815C245.058 41.7088 245.425 41.6725 245.725 41.6725Z" fill="url(#paint7_linear_30265_81561)"/>
<path d="M273.573 55.8543C273.573 53.6725 273.89 51.6906 274.523 49.9088C275.19 48.0906 276.123 46.527 277.323 45.2179C278.524 43.9088 279.941 42.9088 281.574 42.2179C283.241 41.4906 285.075 41.127 287.075 41.127C289.075 41.127 290.892 41.4906 292.526 42.2179C294.193 42.9088 295.626 43.9088 296.826 45.2179C298.027 46.527 298.943 48.0906 299.577 49.9088C300.244 51.6906 300.577 53.6725 300.577 55.8543C300.577 58.0361 300.244 60.0361 299.577 61.8543C298.943 63.6361 298.027 65.1815 296.826 66.4906C295.626 67.7997 294.193 68.7997 292.526 69.4906C290.892 70.2179 289.075 70.5815 287.075 70.5815C285.075 70.5815 283.241 70.2179 281.574 69.4906C279.941 68.7997 278.524 67.7997 277.323 66.4906C276.123 65.1815 275.19 63.6361 274.523 61.8543C273.89 60.0361 273.573 58.0361 273.573 55.8543ZM280.074 55.8543C280.074 58.8725 280.674 60.9997 281.874 62.2361C283.074 63.4361 284.808 64.0361 287.075 64.0361C289.342 64.0361 291.076 63.4361 292.276 62.2361C293.476 60.9997 294.076 58.8725 294.076 55.8543C294.076 52.8361 293.476 50.727 292.276 49.527C291.076 48.2906 289.342 47.6725 287.075 47.6725C284.808 47.6725 283.074 48.2906 281.874 49.527C280.674 50.727 280.074 52.8361 280.074 55.8543Z" fill="url(#paint8_linear_30265_81561)"/>
<path d="M308.42 30.7634C308.72 30.7634 309.086 30.7997 309.52 30.8725C309.953 30.9452 310.37 31.0543 310.77 31.1997C311.17 31.3452 311.503 31.5452 311.77 31.7997C312.037 32.0543 312.17 32.3452 312.17 32.6725C312.17 33.6906 312.154 34.9452 312.12 36.4361C312.087 37.8906 312.054 39.4361 312.02 41.0725C312.02 42.6725 312.004 44.2906 311.97 45.927C311.937 47.527 311.92 49.0179 311.92 50.3997C311.92 51.7452 311.937 53.2361 311.97 54.8725C312.004 56.5088 312.02 58.1452 312.02 59.7815C312.054 61.3815 312.087 62.927 312.12 64.4179C312.154 65.8725 312.17 67.1088 312.17 68.127C312.17 68.4543 312.037 68.7452 311.77 68.9997C311.503 69.2543 311.17 69.4543 310.77 69.5997C310.37 69.7452 309.953 69.8543 309.52 69.927C309.086 69.9997 308.72 70.0361 308.42 70.0361C308.12 70.0361 307.753 69.9997 307.319 69.927C306.886 69.8543 306.469 69.7452 306.069 69.5997C305.669 69.4543 305.336 69.2543 305.069 68.9997C304.802 68.7452 304.669 68.4543 304.669 68.127C304.669 67.1088 304.686 65.8725 304.719 64.4179C304.752 62.927 304.769 61.3815 304.769 59.7815C304.802 58.1452 304.836 56.5088 304.869 54.8725C304.902 53.2361 304.919 51.7452 304.919 50.3997C304.919 49.0179 304.902 47.527 304.869 45.927C304.836 44.2906 304.802 42.6725 304.769 41.0725C304.769 39.4361 304.752 37.8906 304.719 36.4361C304.686 34.9452 304.669 33.6906 304.669 32.6725C304.669 32.3452 304.802 32.0543 305.069 31.7997C305.336 31.5452 305.669 31.3452 306.069 31.1997C306.469 31.0543 306.886 30.9452 307.319 30.8725C307.753 30.7997 308.12 30.7634 308.42 30.7634Z" fill="url(#paint9_linear_30265_81561)"/>
<path d="M316.282 55.8543C316.282 53.6725 316.599 51.6906 317.232 49.9088C317.899 48.0906 318.832 46.527 320.032 45.2179C321.233 43.9088 322.65 42.9088 324.283 42.2179C325.95 41.4906 327.784 41.127 329.784 41.127C330.551 41.127 331.251 41.1815 331.884 41.2906C332.551 41.3997 333.234 41.527 333.935 41.6725C334.668 41.8179 335.451 41.9452 336.285 42.0543C337.152 42.1634 338.152 42.2179 339.285 42.2179C339.752 42.2179 340.135 42.1997 340.436 42.1634C340.769 42.127 341.136 42.0906 341.536 42.0543C342.136 41.9815 342.619 42.1452 342.986 42.5452C343.353 42.9452 343.519 43.4725 343.486 44.127C343.453 45.1452 343.403 46.1088 343.336 47.0179C343.303 47.927 343.253 48.8543 343.186 49.7997C343.153 50.7088 343.119 51.6543 343.086 52.6361C343.053 53.6179 343.036 54.6906 343.036 55.8543C343.036 57.0179 343.053 58.0906 343.086 59.0725C343.119 60.0543 343.153 61.0179 343.186 61.9634C343.253 62.8725 343.303 63.7815 343.336 64.6906C343.403 65.5997 343.453 66.5634 343.486 67.5815C343.519 68.2361 343.353 68.7634 342.986 69.1634C342.619 69.5634 342.136 69.727 341.536 69.6543C341.136 69.6179 340.769 69.5815 340.436 69.5452C340.135 69.5088 339.752 69.4906 339.285 69.4906C338.052 69.4906 337.002 69.5452 336.135 69.6543C335.268 69.7634 334.485 69.8906 333.785 70.0361C333.084 70.1815 332.434 70.3088 331.834 70.4179C331.234 70.527 330.551 70.5815 329.784 70.5815C327.784 70.5815 325.95 70.2179 324.283 69.4906C322.65 68.7997 321.233 67.7997 320.032 66.4906C318.832 65.1815 317.899 63.6361 317.232 61.8543C316.599 60.0361 316.282 58.0361 316.282 55.8543ZM329.784 64.0361C332.051 64.0361 333.785 63.4361 334.985 62.2361C336.185 60.9997 336.785 58.8725 336.785 55.8543C336.785 52.8361 336.185 50.727 334.985 49.527C333.785 48.2906 332.051 47.6725 329.784 47.6725C327.517 47.6725 325.783 48.2906 324.583 49.527C323.383 50.727 322.783 52.8361 322.783 55.8543C322.783 58.8725 323.383 60.9997 324.583 62.2361C325.783 63.4361 327.517 64.0361 329.784 64.0361Z" fill="url(#paint10_linear_30265_81561)"/>
<path d="M348.648 68.127C348.648 67.1088 348.664 66.1634 348.698 65.2906C348.731 64.3815 348.748 63.4543 348.748 62.5088C348.781 61.5634 348.815 60.5634 348.848 59.5088C348.881 58.4179 348.898 57.1997 348.898 55.8543C348.898 54.6906 348.881 53.6179 348.848 52.6361C348.848 51.6543 348.831 50.7088 348.798 49.7997C348.764 48.8543 348.731 47.927 348.698 47.0179C348.664 46.1088 348.648 45.1452 348.648 44.127C348.648 43.4725 348.831 42.9634 349.198 42.5997C349.598 42.1997 350.081 42.0179 350.648 42.0543C351.048 42.0906 351.398 42.127 351.698 42.1634C352.032 42.1997 352.432 42.2179 352.898 42.2179C354.032 42.2179 355.015 42.1634 355.849 42.0543C356.716 41.9452 357.499 41.8179 358.199 41.6725C358.933 41.527 359.633 41.3997 360.3 41.2906C360.966 41.1815 361.666 41.127 362.4 41.127C364.4 41.127 366.217 41.4906 367.851 42.2179C369.518 42.9088 370.951 43.9088 372.151 45.2179C373.352 46.527 374.268 48.0906 374.902 49.9088C375.568 51.6906 375.902 53.6725 375.902 55.8543C375.902 57.1997 375.919 58.4179 375.952 59.5088C375.985 60.5634 376.002 61.5634 376.002 62.5088C376.035 63.4543 376.069 64.3815 376.102 65.2906C376.135 66.1634 376.152 67.1088 376.152 68.127C376.152 68.4543 376.019 68.7452 375.752 68.9997C375.485 69.2543 375.152 69.4543 374.752 69.5997C374.352 69.7452 373.935 69.8543 373.502 69.927C373.068 69.9997 372.701 70.0361 372.401 70.0361C372.101 70.0361 371.735 69.9997 371.301 69.927C370.868 69.8543 370.451 69.7452 370.051 69.5997C369.651 69.4543 369.318 69.2543 369.051 68.9997C368.784 68.7452 368.651 68.4543 368.651 68.127C368.651 67.1088 368.667 66.1634 368.701 65.2906C368.734 64.3815 368.751 63.4543 368.751 62.5088C368.784 61.5634 368.817 60.5634 368.851 59.5088C368.884 58.4179 368.901 57.1997 368.901 55.8543C368.901 52.8361 368.384 50.727 367.351 49.527C366.317 48.2906 364.667 47.6725 362.4 47.6725C360.133 47.6725 358.483 48.2906 357.449 49.527C356.416 50.727 355.899 52.8361 355.899 55.8543C355.899 57.1997 355.916 58.4179 355.949 59.5088C355.982 60.5634 355.999 61.5634 355.999 62.5088C356.032 63.4543 356.066 64.3815 356.099 65.2906C356.132 66.1634 356.149 67.1088 356.149 68.127C356.149 68.4543 356.016 68.7452 355.749 68.9997C355.482 69.2543 355.149 69.4543 354.749 69.5997C354.349 69.7452 353.932 69.8543 353.499 69.927C353.065 69.9997 352.698 70.0361 352.398 70.0361C352.098 70.0361 351.732 69.9997 351.298 69.927C350.865 69.8543 350.448 69.7452 350.048 69.5997C349.648 69.4543 349.315 69.2543 349.048 68.9997C348.781 68.7452 348.648 68.4543 348.648 68.127Z" fill="url(#paint11_linear_30265_81561)"/>
<path d="M393.248 41.127C393.648 41.127 394.115 41.1634 394.648 41.2361C395.182 41.3088 395.715 41.3997 396.248 41.5088C396.815 41.5815 397.365 41.6725 397.899 41.7815C398.432 41.8543 398.882 41.927 399.249 41.9997C399.882 42.1088 400.199 41.8179 400.199 41.127C400.166 40.327 400.116 39.1997 400.049 37.7452C400.016 36.2543 399.999 34.5634 399.999 32.6725C399.999 32.3452 400.116 32.0543 400.349 31.7997C400.616 31.5452 400.916 31.3452 401.249 31.1997C401.616 31.0543 401.999 30.9452 402.399 30.8725C402.833 30.7997 403.199 30.7634 403.5 30.7634C403.8 30.7634 404.15 30.7997 404.55 30.8725C404.983 30.9452 405.366 31.0543 405.7 31.1997C406.067 31.3452 406.367 31.5452 406.6 31.7997C406.867 32.0543 407 32.3452 407 32.6725C407 34.0179 406.967 35.7452 406.9 37.8543C406.867 39.927 406.817 42.0725 406.75 44.2906C406.683 46.4725 406.617 48.5997 406.55 50.6725C406.517 52.7452 406.5 54.4725 406.5 55.8543C406.5 57.0179 406.517 58.0906 406.55 59.0725C406.583 60.0543 406.617 61.0179 406.65 61.9634C406.717 62.8725 406.767 63.7815 406.8 64.6906C406.867 65.5997 406.917 66.5634 406.95 67.5815C406.983 68.2361 406.817 68.7634 406.45 69.1634C406.083 69.5634 405.6 69.727 405 69.6543C404.6 69.6179 404.233 69.5815 403.9 69.5452C403.599 69.5088 403.216 69.4906 402.749 69.4906C401.616 69.4906 400.616 69.5452 399.749 69.6543C398.915 69.7634 398.132 69.8906 397.399 70.0361C396.698 70.1815 396.015 70.3088 395.348 70.4179C394.715 70.527 394.015 70.5815 393.248 70.5815C391.214 70.5815 389.364 70.2179 387.697 69.4906C386.064 68.7997 384.647 67.8179 383.447 66.5452C382.28 65.2361 381.363 63.6906 380.696 61.9088C380.063 60.0906 379.746 58.0725 379.746 55.8543C379.746 53.6361 380.063 51.6361 380.696 49.8543C381.363 48.0361 382.28 46.4906 383.447 45.2179C384.647 43.9088 386.064 42.9088 387.697 42.2179C389.364 41.4906 391.214 41.127 393.248 41.127ZM393.248 64.0361C395.515 64.0361 397.249 63.4361 398.449 62.2361C399.649 60.9997 400.249 58.8725 400.249 55.8543C400.249 52.8361 399.649 50.727 398.449 49.527C397.249 48.2906 395.515 47.6725 393.248 47.6725C390.981 47.6725 389.247 48.2906 388.047 49.527C386.847 50.727 386.247 52.8361 386.247 55.8543C386.247 58.8725 386.847 60.9997 388.047 62.2361C389.247 63.4361 390.981 64.0361 393.248 64.0361Z" fill="url(#paint12_linear_30265_81561)"/>
<defs>
<linearGradient id="paint0_linear_30265_81561" x1="48.1289" y1="51.3366" x2="31.3982" y2="112.153" gradientUnits="userSpaceOnUse">
<stop stop-color="#F83600"/>
<stop offset="0.586458" stop-color="#F9D423"/>
</linearGradient>
<linearGradient id="paint1_linear_30265_81561" x1="53.6685" y1="55.1674" x2="41.1855" y2="100.818" gradientUnits="userSpaceOnUse">
<stop stop-color="#F83600"/>
<stop offset="0.586458" stop-color="#F9D423"/>
</linearGradient>
<linearGradient id="paint2_linear_30265_81561" x1="77.0844" y1="46.8674" x2="48.4332" y2="120.168" gradientUnits="userSpaceOnUse">
<stop stop-color="#F83600"/>
<stop offset="0.586458" stop-color="#F9D423"/>
</linearGradient>
<linearGradient id="paint3_linear_30265_81561" x1="407" y1="28.5816" x2="23.8054" y2="57.3696" gradientUnits="userSpaceOnUse">
<stop offset="0.294797" stop-color="#F83600"/>
<stop offset="1" stop-color="#F9D423"/>
</linearGradient>
<linearGradient id="paint4_linear_30265_81561" x1="407" y1="28.5816" x2="23.8054" y2="57.3696" gradientUnits="userSpaceOnUse">
<stop offset="0.294797" stop-color="#F83600"/>
<stop offset="1" stop-color="#F9D423"/>
</linearGradient>
<linearGradient id="paint5_linear_30265_81561" x1="407" y1="28.5816" x2="23.8054" y2="57.3696" gradientUnits="userSpaceOnUse">
<stop offset="0.294797" stop-color="#F83600"/>
<stop offset="1" stop-color="#F9D423"/>
</linearGradient>
<linearGradient id="paint6_linear_30265_81561" x1="407" y1="28.5816" x2="23.8054" y2="57.3696" gradientUnits="userSpaceOnUse">
<stop offset="0.294797" stop-color="#F83600"/>
<stop offset="1" stop-color="#F9D423"/>
</linearGradient>
<linearGradient id="paint7_linear_30265_81561" x1="407" y1="28.5816" x2="23.8054" y2="57.3696" gradientUnits="userSpaceOnUse">
<stop offset="0.294797" stop-color="#F83600"/>
<stop offset="1" stop-color="#F9D423"/>
</linearGradient>
<linearGradient id="paint8_linear_30265_81561" x1="407" y1="28.5816" x2="23.8054" y2="57.3696" gradientUnits="userSpaceOnUse">
<stop offset="0.294797" stop-color="#F83600"/>
<stop offset="1" stop-color="#F9D423"/>
</linearGradient>
<linearGradient id="paint9_linear_30265_81561" x1="407" y1="28.5816" x2="23.8054" y2="57.3696" gradientUnits="userSpaceOnUse">
<stop offset="0.294797" stop-color="#F83600"/>
<stop offset="1" stop-color="#F9D423"/>
</linearGradient>
<linearGradient id="paint10_linear_30265_81561" x1="407" y1="28.5816" x2="23.8054" y2="57.3696" gradientUnits="userSpaceOnUse">
<stop offset="0.294797" stop-color="#F83600"/>
<stop offset="1" stop-color="#F9D423"/>
</linearGradient>
<linearGradient id="paint11_linear_30265_81561" x1="407" y1="28.5816" x2="23.8054" y2="57.3696" gradientUnits="userSpaceOnUse">
<stop offset="0.294797" stop-color="#F83600"/>
<stop offset="1" stop-color="#F9D423"/>
</linearGradient>
<linearGradient id="paint12_linear_30265_81561" x1="407" y1="28.5816" x2="23.8054" y2="57.3696" gradientUnits="userSpaceOnUse">
<stop offset="0.294797" stop-color="#F83600"/>
<stop offset="1" stop-color="#F9D423"/>
</linearGradient>
</defs>
</svg>
